
<svg version="1.1" id="Ebene_1" xmlns="http://www.w3.org/2000/svg" xmlns:xlink="http://www.w3.org/1999/xlink" x="0px" y="0px"
	 viewBox="0 0 140.27 21.21" style="enable-background:new 0 0 140.27 21.21;" xml:space="preserve">
<style type="text/css">
	.st0{fill:#ffffff;}
</style>
<g id="TUeV_NORD">
	<path class="st0" d="M126.41,17.56h3.7c3.76,0,6.81-3.12,6.81-6.96s-3.06-6.95-6.81-6.95h-3.7V17.56z M130.11,20.62h-7.05V0.59
		h7.05c5.51,0,10.16,4.59,10.16,10.02s-4.65,10.02-10.16,10.02V20.62z M108.16,9.94h5.12c1.79,0,3.14-1.35,3.14-3.14
		s-1.35-3.14-3.14-3.14h-5.12v6.27V9.94z M120.4,20.61h-3.66L112.5,13h-4.34v7.61h-3.34V0.6h8.46c3.69,0,6.48,2.66,6.48,6.2
		c0,3.96-3.22,5.56-3.91,5.86l4.56,7.95L120.4,20.61z M78.12,20.61h-2.86L64.4,6.57v14.04h-3.34V0.6h2.8l10.92,14.05V0.6h3.34
		C78.12,0.6,78.12,20.61,78.12,20.61z M51.6,20.61L59.04,0.6h-5.39l-4.79,13.84L44.07,0.6h-5.39l7.43,20h5.51L51.6,20.61z
		 M16.51,0.6v4.37h-5.83v15.64H5.83V4.97H0V0.6H16.51z M30.44,0.6h-4.85v4.85h4.85V0.6z M32.5,11.86V0.6h4.85v12.02
		c0,4.99-3.99,8.57-9.34,8.57c-5.06,0-9.34-3.27-9.34-8.57V0.6h4.85v11.26c0,2.96,1.92,4.71,4.49,4.71S32.5,14.71,32.5,11.86z
		 M91.49,21.21c-6.11,0-10.9-4.66-10.9-10.61S85.38,0,91.49,0s10.9,4.66,10.9,10.61S97.6,21.22,91.49,21.21L91.49,21.21z
		 M91.49,3.06c-4.23,0-7.54,3.31-7.54,7.54s3.31,7.54,7.54,7.54s7.54-3.31,7.54-7.54S95.72,3.06,91.49,3.06z"/>
</g>
</svg>
