<?xml version="1.0" encoding="UTF-8"?><svg id="katman_2" xmlns="http://www.w3.org/2000/svg" xmlns:xlink="http://www.w3.org/1999/xlink" viewBox="0 0 2803.77 430.06"><defs><style>.cls-1{fill:url(#Adsız_degrade_2);}.cls-2{fill:url(#linear-gradient);}.cls-3{fill:#48ae4d;}.cls-4{fill:url(#linear-gradient-8);}.cls-5{fill:url(#linear-gradient-9);}.cls-6{fill:url(#linear-gradient-3);}.cls-7{fill:url(#linear-gradient-4);}.cls-8{fill:url(#linear-gradient-2);}.cls-9{fill:url(#linear-gradient-6);}.cls-10{fill:url(#linear-gradient-7);}.cls-11{fill:url(#linear-gradient-5);}.cls-12{fill:url(#linear-gradient-14);}.cls-13{fill:url(#linear-gradient-18);}.cls-14{fill:url(#linear-gradient-22);}.cls-15{fill:url(#linear-gradient-20);}.cls-16{fill:url(#linear-gradient-21);}.cls-17{fill:url(#linear-gradient-23);}.cls-18{fill:url(#linear-gradient-15);}.cls-19{fill:url(#linear-gradient-19);}.cls-20{fill:url(#linear-gradient-16);}.cls-21{fill:url(#linear-gradient-17);}.cls-22{fill:url(#linear-gradient-13);}.cls-23{fill:url(#linear-gradient-12);}.cls-24{fill:url(#linear-gradient-10);}.cls-25{fill:url(#linear-gradient-11);}.cls-26{fill:url(#linear-gradient-27);}.cls-27{fill:url(#linear-gradient-24);}.cls-28{fill:url(#linear-gradient-26);}.cls-29{fill:url(#linear-gradient-38);}.cls-30{fill:url(#linear-gradient-35);}.cls-31{fill:url(#linear-gradient-37);}.cls-32{fill:url(#linear-gradient-34);}.cls-33{fill:url(#linear-gradient-36);}.cls-34{fill:url(#linear-gradient-25);}.cls-35{fill:url(#linear-gradient-28);}.cls-36{fill:url(#linear-gradient-29);}.cls-37{fill:url(#linear-gradient-33);}.cls-38{fill:url(#linear-gradient-30);}.cls-39{fill:url(#linear-gradient-32);}.cls-40{fill:url(#linear-gradient-31);}</style><linearGradient id="linear-gradient" x1="499.11" y1="308.69" x2="319.55" y2="308.69" gradientUnits="userSpaceOnUse"><stop offset="0" stop-color="#b7854d"/><stop offset=".15" stop-color="#f5d98f"/><stop offset=".3" stop-color="#fdf6b7"/><stop offset=".52" stop-color="#f5d88e"/><stop offset=".64" stop-color="#fcf5b7"/><stop offset=".75" stop-color="#d4b067"/><stop offset=".85" stop-color="#bd9149"/><stop offset="1" stop-color="#b7854d"/></linearGradient><linearGradient id="linear-gradient-2" x1="16223.49" y1="106.97" x2="16602.54" y2="106.97" gradientTransform="translate(16602.54) rotate(-180) scale(1 -1)" gradientUnits="userSpaceOnUse"><stop offset="0" stop-color="#b7854d"/><stop offset=".15" stop-color="#f5d98f"/><stop offset=".34" stop-color="#f5d88e"/><stop offset=".53" stop-color="#fcf5b7"/><stop offset=".7" stop-color="#d4b067"/><stop offset=".85" stop-color="#bd9149"/><stop offset="1" stop-color="#b7854d"/></linearGradient><linearGradient id="linear-gradient-3" x1="241.61" y1="256.19" x2="443.65" y2="324.32" gradientUnits="userSpaceOnUse"><stop offset="0" stop-color="#b7854d"/><stop offset=".15" stop-color="#f5d98f"/><stop offset=".3" stop-color="#fdf6b7"/><stop offset=".52" stop-color="#f5d88e"/><stop offset=".64" stop-color="#fcf5b7"/><stop offset=".84" stop-color="#d4b067"/><stop offset="1" stop-color="#b7854d"/></linearGradient><linearGradient id="linear-gradient-4" x1="16210.25" y1="195.63" x2="17071.48" y2="-301.6" xlink:href="#linear-gradient-2"/><linearGradient id="linear-gradient-5" x1="16211.68" y1="193.77" x2="16996.12" y2="-259.13" xlink:href="#linear-gradient-2"/><linearGradient id="linear-gradient-6" x1="16286.77" y1="287.52" x2="16496.59" y2="166.39" xlink:href="#linear-gradient-2"/><linearGradient id="linear-gradient-7" x1="16208.63" y1="197.81" x2="17169.72" y2="-357.08" xlink:href="#linear-gradient-2"/><linearGradient id="linear-gradient-8" x1="16205.8" y1="159.87" x2="16592.67" y2="-23.39" gradientTransform="translate(16602.54) rotate(-180) scale(1 -1)" gradientUnits="userSpaceOnUse"><stop offset="0" stop-color="#b7854d"/><stop offset=".15" stop-color="#f5d98f"/><stop offset=".5" stop-color="#fdf6b7"/><stop offset=".59" stop-color="#fcf5b7"/><stop offset=".84" stop-color="#d4b067"/><stop offset="1" stop-color="#b7854d"/></linearGradient><linearGradient id="linear-gradient-9" x1="451.12" y1="167.34" x2="823.46" y2="96.37" gradientTransform="matrix(1, 0, 0, 1, 0, 0)" xlink:href="#linear-gradient-2"/><linearGradient id="linear-gradient-10" x1="373.87" y1="333.77" x2="594.71" y2="246.84" xlink:href="#linear-gradient-3"/><linearGradient id="linear-gradient-11" x1="426.35" y1="195.64" x2="1288.32" y2="-302.02" gradientTransform="matrix(1, 0, 0, 1, 0, 0)" xlink:href="#linear-gradient-2"/><linearGradient id="linear-gradient-12" x1="427.85" y1="193.74" x2="1210.39" y2="-258.06" gradientTransform="matrix(1, 0, 0, 1, 0, 0)" xlink:href="#linear-gradient-2"/><linearGradient id="linear-gradient-13" x1="502.89" y1="287.52" x2="712.71" y2="166.39" gradientTransform="matrix(1, 0, 0, 1, 0, 0)" xlink:href="#linear-gradient-2"/><linearGradient id="linear-gradient-14" x1="424.8" y1="197.78" x2="1383.58" y2="-355.77" gradientTransform="matrix(1, 0, 0, 1, 0, 0)" xlink:href="#linear-gradient-2"/><linearGradient id="linear-gradient-15" x1="421.91" y1="159.87" x2="808.79" y2="-23.39" gradientTransform="matrix(1, 0, 0, 1, 0, 0)" xlink:href="#linear-gradient-8"/><linearGradient id="linear-gradient-16" x1="492.79" y1="307.99" x2="325.87" y2="307.99" gradientUnits="userSpaceOnUse"><stop offset="0" stop-color="#b7854d"/><stop offset=".15" stop-color="#f5d98f"/><stop offset=".3" stop-color="#fdf6b7"/><stop offset=".52" stop-color="#f5d88e"/><stop offset=".64" stop-color="#fcf5b7"/><stop offset=".83" stop-color="#d4b067"/><stop offset="1" stop-color="#b7854d"/></linearGradient><linearGradient id="linear-gradient-17" x1="346.93" y1="98.06" x2="75.94" y2="98.06" gradientTransform="matrix(1, 0, 0, 1, 0, 0)" xlink:href="#linear-gradient-2"/><linearGradient id="linear-gradient-18" x1="237.19" y1="224.6" x2="418.88" y2="353.03" xlink:href="#linear-gradient-3"/><linearGradient id="linear-gradient-19" x1="282.61" y1="243.34" x2="152.61" y2="139.97" gradientUnits="userSpaceOnUse"><stop offset="0" stop-color="#b7854d"/><stop offset=".21" stop-color="#f5d98f"/><stop offset=".34" stop-color="#f5d88e"/><stop offset=".53" stop-color="#fcf5b7"/><stop offset=".7" stop-color="#d4b067"/><stop offset=".85" stop-color="#bd9149"/><stop offset="1" stop-color="#b7854d"/></linearGradient><linearGradient id="linear-gradient-20" x1="359.67" y1="129.66" x2="66.77" y2="-8.18" gradientTransform="matrix(1, 0, 0, 1, 0, 0)" xlink:href="#linear-gradient-8"/><linearGradient id="linear-gradient-21" x1="481.78" y1="176.47" x2="754.32" y2="85.62" gradientTransform="matrix(1, 0, 0, 1, 0, 0)" xlink:href="#linear-gradient-2"/><linearGradient id="Adsız_degrade_2" x1="542.4" y1="238.52" x2="664.58" y2="138.27" gradientUnits="userSpaceOnUse"><stop offset="0" stop-color="#b7854d"/><stop offset=".15" stop-color="#f5d98f"/><stop offset=".34" stop-color="#f5d88e"/><stop offset=".53" stop-color="#fcf5b7"/><stop offset=".7" stop-color="#d4b067"/><stop offset=".85" stop-color="#bd9149"/><stop offset="1" stop-color="#b7854d"/></linearGradient><linearGradient id="linear-gradient-22" x1="460.07" y1="127.07" x2="757.67" y2="-2.94" gradientTransform="matrix(1, 0, 0, 1, 0, 0)" xlink:href="#linear-gradient-8"/><linearGradient id="linear-gradient-23" x1="1099.52" y1="113.91" x2="1099.52" y2="313.39" gradientUnits="userSpaceOnUse"><stop offset=".27" stop-color="#fff"/><stop offset=".72" stop-color="#fff4e7"/><stop offset="1" stop-color="#fff0de"/></linearGradient><linearGradient id="linear-gradient-24" x1="1102.06" y1="92.21" x2="1102.06" y2="345.27" gradientUnits="userSpaceOnUse"><stop offset="0" stop-color="#eaeaea"/><stop offset=".1" stop-color="#e6e6e6"/><stop offset=".18" stop-color="#ddd"/><stop offset=".26" stop-color="#ccc"/><stop offset=".32" stop-color="#b5b6b6"/><stop offset=".39" stop-color="#979898"/><stop offset=".42" stop-color="#828383"/><stop offset=".45" stop-color="#989691"/><stop offset=".51" stop-color="#c4bbad"/><stop offset=".56" stop-color="#e4d6c1"/><stop offset=".61" stop-color="#f7e7cd"/><stop offset=".64" stop-color="#ffedd2"/><stop offset=".9" stop-color="#8e7b6e"/><stop offset="1" stop-color="#634f48"/></linearGradient><linearGradient id="linear-gradient-25" x1="1298.32" y1="114.09" x2="1298.32" y2="315.22" xlink:href="#linear-gradient-23"/><linearGradient id="linear-gradient-26" x1="1300.93" y1="92.22" x2="1300.93" y2="347.34" xlink:href="#linear-gradient-24"/><linearGradient id="linear-gradient-27" x1="1553.54" y1="113.76" x2="1553.54" y2="313.49" xlink:href="#linear-gradient-23"/><linearGradient id="linear-gradient-28" x1="1556.05" y1="92.04" x2="1556.05" y2="345.41" xlink:href="#linear-gradient-24"/><linearGradient id="linear-gradient-29" x1="1838.8" y1="108.43" x2="1838.8" y2="315.09" xlink:href="#linear-gradient-23"/><linearGradient id="linear-gradient-30" x1="1841.39" y1="85.95" x2="1841.39" y2="348.11" xlink:href="#linear-gradient-24"/><linearGradient id="linear-gradient-31" x1="2084.14" y1="113.36" x2="2084.14" y2="315.2" xlink:href="#linear-gradient-23"/><linearGradient id="linear-gradient-32" x1="2086.67" y1="91.41" x2="2086.67" y2="347.45" xlink:href="#linear-gradient-24"/><linearGradient id="linear-gradient-33" x1="2309.99" y1="113.25" x2="2309.99" y2="315.98" xlink:href="#linear-gradient-23"/><linearGradient id="linear-gradient-34" x1="2312.6" y1="91.2" x2="2312.6" y2="348.38" xlink:href="#linear-gradient-24"/><linearGradient id="linear-gradient-35" x1="2518.64" y1="111.39" x2="2518.64" y2="310.87" xlink:href="#linear-gradient-23"/><linearGradient id="linear-gradient-36" x1="2521.18" y1="89.69" x2="2521.18" y2="342.75" xlink:href="#linear-gradient-24"/><linearGradient id="linear-gradient-37" x1="2713.68" y1="111.56" x2="2713.68" y2="312.68" xlink:href="#linear-gradient-23"/><linearGradient id="linear-gradient-38" x1="2716.3" y1="89.69" x2="2716.3" y2="344.8" xlink:href="#linear-gradient-24"/></defs><g id="katman_1"><g><path class="cls-2" d="M346.41,187.34c-78.09,66.66,36.25,94.85,62.92,242.72,26.67-147.87,141.01-176.06,62.91-242.72h0c8.5,8.57,12.71,23.47,6,35.54-13.72,24.69-44.2,25.06-68.92,25.06s-55.2-.38-68.92-25.06c-6.71-12.07-2.5-26.97,6-35.54"/><path class="cls-8" d="M110.27,166.19c4.72-4.62,8.56-9.59,12.72-14.65,11.78-14.31,15.28-31.36,10.04-49.31-9.47-32.42-36.51-61.21-65.9-76.87-6.24-3.32-12.54-5.69-18.88-7.55C32.39,13.16,16.23,11.66,0,6.2c191.24,14.88,334.71,110.9,379.05,184.83-.95-1.12-1.9-2.18-2.83-3.2-.33-.36-.65-.69-.99-1.04-.51-.55-1.03-1.11-1.54-1.63-.1-.11-.2-.2-.31-.3-.22-.23-.45-.44-.67-.67-.64-.64-1.28-1.26-1.91-1.86-.26-.25-.52-.49-.78-.73-.16-.15-.31-.3-.47-.45-.01,0-.02,0-.03-.01-11.62-10.64-20.83-14.02-24.13-15.4-35.67-14.92-160.84-45.21-250.83,27.27-5.2,4.19-10.38,8.81-14.15,14.73-.64-14.76,20.28-32.15,29.87-41.54Z"/><path class="cls-6" d="M346.41,187.34c-78.09,66.66,36.25,94.85,62.92,242.72-28.19-60.56-96.07-126.42-172.27-121.7-27.08,1.68-41.27,25.93-37.61,51.83-8.07-16.92-1.92-41.83-1.26-44.43,38.15-151.57,135.63-147.82,171.37-134.61,1.35,1.24,2.73,2.57,4.14,4.01-9.44-7.91-19.95-5.23-27.28,2.17"/><g><path class="cls-7" d="M372.72,184.19c.22,.22,.45,.44,.67,.67-.22-.23-.45-.44-.67-.67Z"/><path class="cls-11" d="M370.8,182.33c-.26-.25-.52-.49-.78-.73,.26,.24,.52,.48,.78,.73Z"/><path class="cls-9" d="M94.56,193.01c89.99-72.48,215.16-42.19,250.83-27.27,3.3,1.38,12.51,4.76,24.13,15.4-35.77-13.2-133.2-16.9-171.34,134.62-.65,2.6-6.81,27.51,1.26,44.43-18.61-13.03-10.53-48-7.78-66.37,2.96-19.79,3.94-38.89-1.69-58.39-14.05-48.65-72.6-59.96-109.57-27.69,3.78-5.92,8.95-10.54,14.15-14.73Z"/><path class="cls-10" d="M376.21,187.83c-.33-.36-.65-.69-.99-1.04,.33,.35,.65,.68,.99,1.04Z"/></g><path class="cls-4" d="M379.05,191.03C334.71,117.1,191.24,21.08,0,6.2,17.35-1.76,38.2-.12,56.78,.78c20.21,.97,40.12,4.22,60.07,7.55,44.69,7.47,87.73,22,128.97,40.58,38.63,17.4,68.38,39.47,94.57,73.03,14.27,18.29,36.23,44.84,38.65,69.09Z"/><path class="cls-5" d="M708.39,166.19c-4.72-4.62-8.56-9.59-12.72-14.65-11.78-14.31-15.28-31.36-10.04-49.31,9.47-32.42,36.51-61.21,65.9-76.87,6.24-3.32,12.53-5.69,18.89-7.55,15.85-4.65,32.02-6.16,48.25-11.61-191.24,14.88-334.71,110.9-379.05,184.83,.95-1.12,1.9-2.18,2.84-3.2,.33-.36,.66-.69,.98-1.04,.52-.55,1.03-1.11,1.54-1.63,.1-.11,.21-.2,.31-.3,.22-.23,.44-.44,.67-.67,.64-.64,1.28-1.26,1.92-1.86,.26-.25,.52-.49,.77-.73,.16-.15,.32-.3,.47-.45,0,0,.02,0,.03-.01,11.62-10.64,20.82-14.02,24.13-15.4,35.67-14.92,160.84-45.21,250.83,27.27,5.2,4.19,10.38,8.81,14.16,14.73,.64-14.76-20.28-32.15-29.87-41.54Z"/><path class="cls-24" d="M472.24,187.34c78.09,66.66-36.25,94.85-62.91,242.72,28.19-60.56,96.07-126.42,172.27-121.7,27.08,1.68,41.27,25.93,37.62,51.83,8.07-16.92,1.91-41.83,1.26-44.43-38.15-151.57-135.63-147.82-171.37-134.61-1.35,1.24-2.73,2.57-4.14,4.01,9.44-7.91,19.95-5.23,27.28,2.17"/><g><path class="cls-25" d="M445.94,184.19c-.23,.22-.45,.44-.67,.67,.22-.23,.44-.44,.67-.67Z"/><path class="cls-23" d="M447.86,182.33c.26-.25,.52-.49,.77-.73-.26,.24-.52,.48-.77,.73Z"/><path class="cls-22" d="M724.1,193.01c-89.99-72.48-215.16-42.19-250.83-27.27-3.31,1.38-12.51,4.76-24.13,15.4,35.77-13.2,133.2-16.9,171.34,134.62,.66,2.6,6.81,27.51-1.26,44.43,18.61-13.03,10.53-48,7.78-66.37-2.96-19.79-3.94-38.89,1.69-58.39,14.05-48.65,72.6-59.96,109.57-27.69-3.78-5.92-8.95-10.54-14.16-14.73Z"/><path class="cls-12" d="M442.45,187.83c.33-.36,.66-.69,.98-1.04-.33,.35-.65,.68-.98,1.04Z"/></g><path class="cls-18" d="M439.61,191.03C483.95,117.1,627.42,21.08,818.66,6.2c-17.35-7.96-38.19-6.32-56.78-5.43-20.2,.97-40.12,4.22-60.07,7.55-44.7,7.47-87.73,22-128.97,40.58-38.63,17.4-68.38,39.47-94.57,73.03-14.27,18.29-36.23,44.84-38.66,69.09Z"/><path class="cls-20" d="M409.33,254.32c-24.76,0-58.68,0-74.39-28.28-2.15-3.87-3.38-7.92-3.86-11.98-.24,.42-.48,.83-.7,1.24-.11,.2-.23,.41-.33,.61-.43,.84-.83,1.67-1.19,2.5-.07,.16-.12,.31-.19,.47-.28,.68-.55,1.35-.79,2.03-.09,.26-.18,.52-.26,.78-.2,.6-.38,1.2-.54,1.8-.06,.24-.13,.48-.2,.72-.2,.82-.39,1.64-.53,2.46,0,.01,0,.03,0,.04-.14,.81-.24,1.61-.32,2.41-.02,.25-.04,.49-.06,.74-.04,.59-.07,1.18-.09,1.78,0,.26-.01,.52-.01,.78,0,.68,.02,1.36,.06,2.05,0,.14,0,.28,.02,.42,.06,.82,.15,1.65,.26,2.47,.03,.22,.07,.45,.1,.67,.09,.62,.2,1.24,.33,1.86,.05,.27,.11,.54,.17,.81,.14,.63,.29,1.26,.46,1.9,.06,.22,.11,.43,.17,.65,.24,.84,.5,1.69,.78,2.54,.06,.17,.12,.34,.18,.5,.24,.7,.49,1.4,.76,2.1,.11,.28,.22,.55,.33,.84,.25,.63,.52,1.27,.79,1.91,.11,.26,.22,.52,.34,.78,.39,.88,.8,1.77,1.24,2.67,0,.01,.01,.03,.02,.04,.43,.89,.89,1.79,1.37,2.7,.14,.28,.3,.56,.44,.84,.36,.67,.73,1.35,1.1,2.03,.16,.29,.32,.59,.49,.88,.44,.78,.89,1.57,1.35,2.36,.1,.17,.2,.34,.3,.51,.57,.96,1.16,1.94,1.76,2.93,.16,.27,.33,.54,.5,.8,.46,.74,.93,1.5,1.41,2.25,.21,.33,.41,.65,.62,.98,.49,.77,.99,1.55,1.5,2.34,.17,.26,.33,.52,.5,.78,.68,1.04,1.37,2.09,2.08,3.17,.14,.21,.28,.42,.42,.63,.59,.89,1.2,1.79,1.81,2.71,.23,.35,.47,.7,.71,1.05,.56,.83,1.12,1.66,1.68,2.5,.24,.34,.46,.69,.7,1.04,.74,1.09,1.49,2.19,2.25,3.32,.62,.91,1.24,1.82,1.86,2.75,.19,.27,.37,.55,.56,.82,.46,.67,.92,1.35,1.38,2.04,.24,.35,.47,.71,.71,1.06,.43,.64,.86,1.28,1.29,1.93,.25,.37,.49,.73,.74,1.11,.44,.66,.88,1.32,1.33,1.98,.24,.37,.48,.73,.72,1.09,.47,.72,.95,1.44,1.43,2.17,.21,.31,.42,.63,.62,.94,.68,1.05,1.37,2.1,2.06,3.17,.04,.07,.08,.13,.13,.2,.65,1,1.29,2.01,1.95,3.03,.21,.33,.42,.67,.63,1,.48,.76,.96,1.52,1.45,2.29,.26,.41,.51,.83,.77,1.24,.45,.71,.89,1.44,1.34,2.17,.26,.43,.53,.86,.79,1.29,.45,.74,.9,1.48,1.35,2.23,.26,.43,.51,.86,.77,1.28,.5,.84,1,1.69,1.5,2.54,.2,.34,.4,.68,.6,1.02,.7,1.21,1.4,2.43,2.11,3.66,.06,.11,.12,.23,.19,.33,.63,1.11,1.26,2.24,1.89,3.37,.22,.4,.44,.81,.66,1.22,.47,.86,.94,1.72,1.41,2.59,.26,.48,.51,.95,.76,1.43,.44,.82,.87,1.65,1.31,2.48,.26,.5,.52,1,.78,1.5,.44,.85,.87,1.71,1.31,2.58,.24,.48,.49,.96,.73,1.45,.49,.98,.97,1.97,1.46,2.97,.18,.38,.36,.75,.55,1.13,.66,1.38,1.33,2.78,1.98,4.19,.09,.21,.19,.42,.28,.62,.55,1.21,1.1,2.42,1.65,3.64,.22,.48,.43,.97,.64,1.46,.43,.96,.85,1.93,1.26,2.91,.24,.55,.47,1.12,.71,1.68,.39,.94,.78,1.88,1.17,2.83,.24,.58,.47,1.16,.71,1.74,.39,.97,.78,1.95,1.16,2.94,.22,.56,.44,1.12,.65,1.68,.43,1.13,.86,2.27,1.28,3.42,.16,.43,.32,.85,.47,1.28,.58,1.58,1.14,3.17,1.7,4.79,.11,.32,.22,.65,.33,.98,.44,1.29,.88,2.59,1.31,3.91,.19,.58,.37,1.17,.56,1.75,.34,1.08,.68,2.16,1.02,3.26,.2,.66,.4,1.31,.59,1.97,.32,1.05,.63,2.12,.93,3.18,.2,.67,.39,1.35,.58,2.04,.11,.39,.22,.77,.33,1.16,.11-.39,.22-.77,.33-1.16,.19-.68,.38-1.36,.58-2.04,.31-1.07,.62-2.13,.93-3.18,.2-.66,.39-1.31,.59-1.97,.34-1.09,.67-2.18,1.02-3.26,.19-.58,.37-1.17,.56-1.75,.43-1.32,.87-2.62,1.31-3.91,.11-.33,.22-.66,.33-.98,.56-1.61,1.12-3.21,1.7-4.79,.16-.43,.32-.85,.47-1.28,.43-1.15,.85-2.29,1.28-3.42,.21-.56,.43-1.12,.65-1.68,.38-.98,.77-1.97,1.16-2.94,.23-.58,.47-1.17,.71-1.74,.39-.95,.78-1.89,1.17-2.83,.24-.56,.47-1.12,.71-1.68,.42-.98,.84-1.95,1.27-2.91,.21-.49,.42-.98,.64-1.46,.55-1.22,1.1-2.44,1.65-3.64,.09-.2,.19-.41,.28-.62,.65-1.41,1.31-2.8,1.98-4.19,.19-.39,.37-.76,.56-1.15,.48-.99,.96-1.98,1.45-2.95,.24-.49,.49-.97,.73-1.45,.44-.87,.87-1.73,1.31-2.58,.26-.5,.52-1,.78-1.5,.43-.83,.87-1.66,1.31-2.48,.26-.48,.51-.96,.77-1.43,.47-.87,.94-1.73,1.41-2.59,.22-.41,.44-.82,.67-1.22,.63-1.13,1.26-2.26,1.89-3.37,.06-.11,.13-.23,.19-.33,.7-1.23,1.4-2.45,2.1-3.66,.2-.34,.4-.68,.6-1.02,.5-.85,1-1.7,1.5-2.54,.26-.43,.51-.85,.77-1.28,.45-.75,.9-1.49,1.35-2.23,.26-.43,.53-.86,.79-1.29,.45-.73,.89-1.45,1.34-2.17,.26-.41,.51-.83,.77-1.24,.48-.77,.96-1.53,1.44-2.29,.21-.33,.42-.67,.63-1,.65-1.02,1.3-2.04,1.94-3.03,.04-.07,.08-.13,.13-.2,.69-1.07,1.38-2.12,2.07-3.17,.21-.32,.42-.63,.62-.94,.48-.73,.95-1.45,1.42-2.16,.25-.38,.5-.75,.75-1.12,.43-.65,.86-1.3,1.29-1.94,.25-.38,.51-.76,.76-1.13,.43-.64,.86-1.28,1.29-1.92,.23-.35,.47-.7,.71-1.06,.46-.69,.92-1.37,1.38-2.04,.19-.28,.37-.55,.56-.82,.63-.93,1.25-1.84,1.86-2.75,.76-1.12,1.51-2.23,2.25-3.32,.24-.35,.46-.69,.7-1.04,.57-.84,1.13-1.67,1.68-2.5,.24-.35,.48-.7,.71-1.05,.62-.92,1.23-1.83,1.83-2.73,.13-.2,.27-.4,.39-.6,.72-1.08,1.41-2.14,2.1-3.19,.16-.24,.31-.47,.46-.71,.53-.82,1.05-1.62,1.56-2.42,.19-.31,.39-.61,.58-.92,.5-.79,.99-1.57,1.47-2.34,.15-.24,.3-.48,.44-.72,.62-1,1.21-1.99,1.79-2.97,.08-.14,.16-.28,.24-.41,.49-.83,.96-1.65,1.42-2.47,.16-.27,.31-.54,.46-.82,.39-.71,.78-1.41,1.15-2.11,.13-.25,.27-.51,.41-.76,.97-1.85,1.85-3.67,2.65-5.47,.1-.24,.2-.47,.3-.71,.29-.67,.57-1.33,.83-2,.1-.26,.21-.51,.3-.77,.29-.74,.55-1.47,.8-2.2,.05-.14,.1-.27,.14-.41,.29-.86,.55-1.73,.79-2.58,.05-.19,.1-.38,.15-.58,.18-.66,.34-1.32,.48-1.97,.06-.25,.11-.51,.16-.76,.13-.65,.24-1.29,.34-1.93,.03-.2,.07-.41,.1-.61,.12-.83,.2-1.67,.26-2.5,0-.12,0-.24,.01-.36,.04-.71,.06-1.41,.06-2.12,0-.25,0-.49-.01-.74-.01-.61-.04-1.21-.09-1.81-.02-.24-.03-.48-.06-.71-.16-1.64-.44-3.28-.85-4.92-.06-.24-.13-.48-.19-.71-.17-.6-.35-1.2-.54-1.8-.09-.26-.17-.52-.27-.78-.24-.67-.5-1.33-.78-2-.07-.16-.13-.33-.2-.49-.36-.82-.76-1.65-1.18-2.48-.11-.22-.24-.44-.36-.66-.22-.4-.45-.8-.68-1.21-.48,4.06-1.71,8.11-3.86,11.98-15.72,28.28-49.63,28.28-74.39,28.28Z"/><path class="cls-21" d="M346.2,158.94c-1.16-1.23-2.34-2.45-3.55-3.68-.37-.38-.74-.76-1.11-1.14-1.52-1.53-3.07-3.06-4.66-4.59-.4-.38-.81-.77-1.21-1.15-1.27-1.21-2.55-2.42-3.86-3.62-.5-.46-1-.92-1.51-1.38-1.67-1.52-3.36-3.04-5.1-4.56-.23-.2-.46-.4-.69-.59-1.55-1.35-3.13-2.69-4.73-4.04-.58-.48-1.15-.96-1.74-1.44-1.46-1.21-2.94-2.42-4.44-3.62-.43-.34-.85-.69-1.28-1.03-1.85-1.47-3.74-2.94-5.65-4.41-.6-.46-1.21-.92-1.82-1.38-1.46-1.1-2.93-2.2-4.42-3.3-.63-.47-1.26-.93-1.9-1.4-1.98-1.44-3.98-2.87-6.01-4.3-.53-.37-1.06-.73-1.59-1.1-1.61-1.12-3.24-2.24-4.88-3.35-.75-.51-1.49-1.01-2.25-1.51-1.77-1.18-3.56-2.36-5.37-3.53-.44-.28-.86-.57-1.3-.85-2.14-1.38-4.32-2.75-6.52-4.11-.79-.49-1.6-.98-2.4-1.48-1.63-1-3.28-2-4.95-2.99-.74-.44-1.48-.89-2.23-1.33-2.25-1.33-4.52-2.64-6.81-3.95-.77-.44-1.55-.87-2.32-1.31-1.71-.96-3.42-1.92-5.16-2.86-.88-.48-1.77-.97-2.66-1.45-2.27-1.23-4.55-2.45-6.87-3.66-.64-.34-1.29-.67-1.94-1-2.01-1.04-4.03-2.07-6.07-3.1-.94-.47-1.89-.94-2.84-1.41-1.88-.93-3.78-1.86-5.68-2.77-.77-.37-1.53-.74-2.29-1.11-2.52-1.2-5.06-2.38-7.62-3.55-.92-.42-1.85-.84-2.77-1.26-1.89-.85-3.78-1.7-5.69-2.53-.94-.41-1.88-.83-2.83-1.24-2.63-1.14-5.28-2.27-7.95-3.38-.76-.32-1.53-.62-2.3-.94-2.09-.86-4.2-1.71-6.31-2.55-1.01-.4-2.02-.8-3.04-1.2-2.31-.9-4.63-1.79-6.97-2.68-.58-.22-1.16-.45-1.75-.67-2.8-1.05-5.63-2.07-8.47-3.09-.99-.35-1.99-.7-2.99-1.05-2.17-.76-4.35-1.51-6.54-2.26-.88-.3-1.76-.6-2.65-.9-2.92-.97-5.85-1.93-8.8-2.87-.84-.27-1.7-.53-2.54-.79-2.31-.72-4.63-1.43-6.96-2.13-.98-.29-1.96-.59-2.94-.88-3.05-.9-6.12-1.79-9.21-2.64-.39-.11-.79-.21-1.18-.32-2.8-.77-5.61-1.52-8.43-2.26-.98-.26-1.96-.51-2.94-.76-2.6-.67-5.22-1.32-7.85-1.96-.66-.16-1.32-.33-1.98-.49-3.2-.77-6.43-1.51-9.67-2.23-.87-.19-1.74-.38-2.61-.57-2.59-.57-5.19-1.12-7.8-1.65-.55-.11-1.1-.23-1.66-.34,30.4,18.07,54.3,47.19,63.11,77.34,5.84,20,1.96,39.03-11.21,55.04-.73,.89-1.46,1.78-2.17,2.66-3.38,4.15-6.87,8.44-11,12.48-.67,.66-1.4,1.35-2.17,2.08,.15-.09,.3-.17,.46-.27,1.92-1.17,3.87-2.3,5.83-3.4,.37-.21,.74-.41,1.1-.61,1.98-1.09,3.98-2.17,6-3.2,.08-.04,.16-.08,.23-.12,2.08-1.06,4.18-2.07,6.3-3.06,.4-.19,.8-.38,1.2-.56,2.08-.96,4.18-1.88,6.29-2.78,.34-.14,.68-.28,1.01-.42,2.07-.86,4.15-1.69,6.26-2.49,.18-.07,.36-.14,.54-.21,2.2-.83,4.42-1.61,6.66-2.37,.43-.15,.86-.29,1.29-.43,2.23-.74,4.47-1.45,6.74-2.13,.3-.09,.6-.17,.89-.26,2.17-.64,4.36-1.24,6.57-1.82,.28-.07,.56-.15,.84-.23,2.31-.59,4.65-1.15,7-1.68,.46-.1,.92-.21,1.38-.31,2.37-.52,4.75-1.01,7.16-1.47,.24-.04,.49-.09,.73-.13,2.29-.43,4.61-.82,6.94-1.18,.38-.06,.75-.12,1.13-.18,2.42-.37,4.86-.7,7.32-1,.49-.06,.99-.12,1.49-.18,2.51-.3,5.03-.57,7.57-.8,.16-.01,.32-.02,.48-.04,2.45-.22,4.93-.39,7.41-.55,.47-.03,.93-.06,1.4-.09,2.53-.14,5.07-.25,7.64-.33,.51-.02,1.03-.03,1.54-.04,2.66-.07,5.33-.11,8.02-.11,1.44,0,2.88,.01,4.31,.03,.51,0,1.01,.02,1.51,.03,.93,.02,1.85,.03,2.77,.06,.58,.02,1.15,.04,1.73,.06,.84,.03,1.68,.05,2.52,.09,.63,.03,1.25,.06,1.88,.09,.78,.04,1.55,.07,2.33,.11,.66,.04,1.32,.08,1.98,.12,.73,.04,1.47,.09,2.19,.13,.67,.04,1.33,.1,1.99,.14,.71,.05,1.43,.1,2.14,.16,.67,.05,1.34,.12,2.01,.17,.69,.06,1.39,.12,2.08,.18,.68,.06,1.35,.13,2.02,.2,.67,.06,1.35,.13,2.02,.2,.67,.07,1.34,.15,2.01,.22,.66,.07,1.32,.14,1.98,.22,.69,.08,1.37,.16,2.05,.25,.63,.08,1.26,.15,1.88,.23,.69,.09,1.38,.18,2.06,.27,.61,.08,1.22,.16,1.83,.25,.68,.09,1.34,.2,2.01,.29,.61,.09,1.22,.18,1.82,.27,.67,.1,1.33,.21,1.99,.31,.59,.1,1.19,.19,1.78,.28,.66,.11,1.32,.22,1.98,.33,.58,.1,1.16,.2,1.73,.29,.65,.12,1.29,.23,1.94,.35,.57,.1,1.14,.2,1.7,.31,.64,.12,1.28,.24,1.91,.36,.55,.11,1.11,.21,1.66,.32,.63,.13,1.26,.25,1.88,.38,.54,.11,1.08,.22,1.62,.33,.61,.13,1.22,.26,1.84,.39,.53,.11,1.06,.23,1.59,.34,.6,.13,1.2,.27,1.8,.4,.52,.12,1.05,.24,1.56,.36,.59,.14,1.16,.27,1.74,.41,.51,.12,1.02,.24,1.53,.37,.57,.14,1.13,.28,1.7,.42,.5,.12,1,.25,1.49,.37,.56,.14,1.11,.29,1.66,.43,.48,.13,.96,.25,1.44,.38,.54,.15,1.08,.29,1.61,.44,.47,.13,.95,.26,1.41,.39,.52,.15,1.03,.29,1.54,.44,.47,.13,.93,.27,1.39,.4,.5,.15,.99,.29,1.49,.44,.45,.14,.91,.27,1.35,.41,.47,.15,.94,.29,1.41,.44,.45,.14,.89,.28,1.33,.42,.45,.14,.9,.29,1.34,.43,.43,.14,.87,.28,1.29,.42,.43,.14,.85,.29,1.28,.43,.43,.15,.85,.29,1.27,.43,.4,.14,.8,.28,1.19,.42,.42,.15,.83,.3,1.24,.44,.38,.14,.76,.28,1.14,.42,.4,.15,.8,.3,1.19,.44,.36,.14,.71,.27,1.06,.41,.39,.15,.78,.3,1.16,.45,.33,.13,.66,.26,.99,.39,.21,.09,.43,.17,.64,.26-.24-.26-.49-.52-.73-.78Z"/><path class="cls-13" d="M317.25,183.02c-.65,.11-1.3,.21-1.95,.33-.33,.06-.66,.12-1,.18-9.8,1.87-19.92,5.2-29.89,10.46-12.85,6.77-24.45,16.09-34.79,27.9-.07,.09-.15,.17-.23,.26-.88,1.01-1.75,2.04-2.61,3.09-.31,.37-.61,.76-.92,1.14-.48,.59-.95,1.18-1.42,1.78-.51,.65-1.01,1.31-1.51,1.98-.24,.32-.48,.63-.72,.95-.59,.79-1.18,1.59-1.76,2.41-.07,.1-.14,.21-.22,.31-8.39,11.78-16.26,26.13-23.2,43.58-.07,.17-.13,.33-.2,.5-.5,1.25-.99,2.53-1.47,3.81-.12,.32-.25,.65-.37,.97-.45,1.19-.89,2.39-1.32,3.61-.16,.44-.32,.89-.47,1.34-.4,1.13-.8,2.28-1.19,3.44-.19,.56-.38,1.12-.56,1.68-.36,1.08-.72,2.17-1.07,3.27-.22,.68-.43,1.37-.65,2.05-.32,1.01-.64,2.03-.95,3.06-.25,.83-.5,1.69-.75,2.53-.27,.91-.54,1.82-.8,2.74-.31,1.08-.6,2.16-.9,3.25-.2,.73-.41,1.45-.6,2.18-.49,1.84-.98,3.71-1.45,5.59-.02,.09-.06,.23-.09,.37-.02,.06-.03,.13-.05,.19-.02,.09-.05,.2-.07,.31-.02,.08-.03,.15-.05,.23,8.05-9.83,19.35-15.46,32.67-16.28,2.68-.17,5.35-.25,8.02-.25,58.46,0,112.97,39.24,147.71,87.27-13.53-40.15-33.26-69.24-49.9-93.79-28.1-41.45-48.41-71.42-.4-112.56,.3-.3,.6-.59,.91-.87-2.74-.22-5.64-.35-8.71-.35-5.15,0-10.9,.37-17.05,1.35Z"/><polygon class="cls-3" points="346.41 187.45 346.41 187.45 346.41 187.45 346.41 187.45 346.41 187.44 346.41 187.45"/><path class="cls-19" d="M195.99,233.81c6.19,21.44,4.63,41.98,2.11,59.42,13.43-42.22,33-74.27,58.32-95.41,28.37-23.69,58.01-28.66,77.88-28.66,.76,0,1.52,0,2.26,.02-19.33-6.93-56.25-16.2-98.64-16.2-45.97,0-86.08,10.42-119.59,31.02,3.31-.44,6.66-.66,10.02-.66,32.23,0,58.78,19.81,67.64,50.47Z"/><path class="cls-15" d="M247.58,71.07c40.96,22.01,76.47,47.85,102.95,74.46-4.16-5.71-8.41-11.12-12.25-16.02l-2.82-3.6c-24.67-31.61-53.1-53.56-92.2-71.17-44.68-20.13-86.37-33.25-127.43-40.11-20.96-3.5-38.6-6.29-56.72-7.34,82.53,13.97,146.56,41.25,188.48,63.78Z"/><path class="cls-16" d="M733.26,25.25c-.87,.19-1.74,.38-2.61,.57-3.24,.72-6.46,1.46-9.67,2.23-.66,.16-1.32,.32-1.98,.49-2.63,.64-5.25,1.29-7.85,1.96-.98,.25-1.96,.5-2.94,.76-2.82,.74-5.63,1.49-8.43,2.26-.39,.11-.79,.21-1.18,.32-3.09,.86-6.15,1.75-9.2,2.64-.99,.29-1.96,.58-2.95,.88-2.33,.7-4.65,1.41-6.96,2.13-.85,.27-1.7,.53-2.54,.79-2.95,.94-5.89,1.89-8.8,2.87-.89,.3-1.76,.6-2.65,.9-2.19,.74-4.37,1.49-6.54,2.26-1,.35-2,.7-2.99,1.05-2.84,1.02-5.67,2.04-8.47,3.09-.59,.22-1.17,.45-1.75,.67-2.33,.88-4.66,1.77-6.96,2.68-1.02,.4-2.03,.8-3.04,1.2-2.12,.84-4.22,1.69-6.31,2.55-.77,.31-1.54,.62-2.3,.94-2.67,1.11-5.32,2.24-7.95,3.38-.95,.41-1.88,.83-2.83,1.24-1.91,.84-3.81,1.68-5.69,2.53-.93,.42-1.85,.83-2.78,1.26-2.56,1.17-5.1,2.35-7.62,3.55-.77,.37-1.53,.74-2.29,1.11-1.91,.92-3.8,1.84-5.68,2.77-.95,.47-1.89,.94-2.84,1.41-2.04,1.02-4.07,2.06-6.07,3.1-.65,.34-1.3,.67-1.94,1-2.31,1.21-4.6,2.43-6.87,3.66-.89,.48-1.77,.97-2.66,1.45-1.73,.95-3.45,1.9-5.16,2.86-.77,.44-1.55,.87-2.32,1.31-2.29,1.31-4.56,2.62-6.81,3.95-.75,.44-1.49,.89-2.23,1.33-1.66,.99-3.31,1.99-4.95,2.99-.8,.49-1.61,.98-2.4,1.48-2.19,1.36-4.37,2.73-6.52,4.11-.43,.28-.86,.57-1.3,.85-1.81,1.17-3.6,2.35-5.37,3.53-.75,.5-1.5,1.01-2.25,1.51-1.64,1.11-3.27,2.23-4.88,3.35-.53,.37-1.06,.73-1.59,1.1-2.03,1.43-4.03,2.86-6.01,4.3-.64,.46-1.27,.93-1.9,1.4-1.49,1.1-2.96,2.2-4.42,3.3-.61,.46-1.22,.92-1.82,1.38-1.91,1.46-3.8,2.93-5.65,4.41-.43,.34-.85,.69-1.28,1.03-1.5,1.2-2.98,2.41-4.44,3.62-.58,.48-1.16,.97-1.74,1.45-1.6,1.34-3.18,2.69-4.73,4.03-.23,.2-.47,.4-.69,.6-1.74,1.52-3.43,3.04-5.1,4.56-.5,.46-1,.92-1.5,1.38-1.31,1.2-2.59,2.41-3.86,3.62-.4,.38-.82,.77-1.21,1.15-1.59,1.53-3.14,3.06-4.66,4.59-.38,.38-.74,.76-1.11,1.14-1.2,1.23-2.39,2.45-3.54,3.68-.25,.26-.49,.52-.73,.78,.18-.07,.38-.15,.57-.23,.37-.15,.73-.29,1.11-.44,.35-.14,.7-.28,1.06-.41,.38-.15,.76-.29,1.15-.44,.37-.14,.75-.28,1.12-.42,.4-.15,.8-.29,1.2-.44,.38-.14,.78-.28,1.18-.42,.41-.15,.82-.29,1.25-.44,.41-.14,.82-.29,1.24-.43,.42-.15,.85-.29,1.29-.43,.44-.14,.88-.29,1.32-.43,.43-.14,.86-.28,1.3-.42,.46-.15,.92-.29,1.39-.44,.45-.14,.9-.28,1.35-.42,.47-.14,.95-.29,1.43-.43,.46-.14,.92-.28,1.4-.41,.5-.15,1-.29,1.51-.43,.47-.13,.94-.27,1.41-.4,.51-.14,1.03-.28,1.55-.43,.49-.14,.98-.27,1.48-.4,.53-.14,1.06-.28,1.59-.42,.5-.13,1-.26,1.5-.39,.55-.14,1.11-.28,1.67-.42,.51-.13,1.01-.25,1.52-.38,.57-.14,1.14-.27,1.71-.41,.52-.12,1.04-.25,1.56-.37,.58-.13,1.16-.26,1.74-.4,.54-.12,1.07-.24,1.62-.37,.6-.13,1.2-.26,1.8-.39,.54-.11,1.07-.23,1.61-.34,.62-.13,1.25-.26,1.87-.38,.55-.11,1.09-.22,1.64-.33,.62-.12,1.25-.24,1.88-.36,.57-.11,1.13-.22,1.7-.32,.63-.12,1.28-.23,1.92-.35,.58-.1,1.15-.21,1.73-.31,.65-.11,1.3-.22,1.96-.33,.58-.1,1.16-.2,1.75-.3,.66-.11,1.33-.21,2-.32,.59-.09,1.17-.19,1.77-.28,.68-.1,1.36-.2,2.04-.3,.6-.09,1.19-.18,1.8-.26,.69-.1,1.38-.19,2.07-.28,.61-.08,1.21-.16,1.82-.24,.7-.09,1.41-.18,2.12-.26,.61-.08,1.21-.15,1.82-.22,.71-.08,1.44-.16,2.16-.24,.61-.07,1.22-.14,1.84-.2,.72-.08,1.45-.14,2.18-.22,.62-.06,1.24-.13,1.87-.18,.73-.07,1.47-.13,2.21-.19,.63-.06,1.25-.11,1.88-.16,.74-.06,1.5-.11,2.25-.17,.63-.05,1.26-.09,1.89-.14,.77-.05,1.55-.1,2.32-.14,.62-.04,1.23-.08,1.86-.11,.8-.04,1.6-.08,2.4-.11,.6-.03,1.21-.06,1.81-.09,.88-.04,1.76-.06,2.65-.09,.53-.02,1.06-.04,1.59-.05,.96-.03,1.93-.04,2.9-.06,.46,0,.92-.02,1.39-.03,1.43-.02,2.87-.03,4.31-.03,2.69,0,5.36,.05,8.02,.11,.51,.01,1.03,.02,1.54,.04,2.56,.08,5.11,.19,7.64,.33,.47,.03,.93,.06,1.4,.09,2.49,.15,4.96,.33,7.41,.55,.16,.01,.32,.02,.48,.04,2.54,.23,5.07,.5,7.57,.8,.5,.06,.99,.11,1.49,.18,2.46,.3,4.9,.63,7.32,1,.38,.06,.75,.12,1.13,.18,2.33,.36,4.64,.76,6.94,1.18,.24,.04,.49,.09,.73,.13,2.41,.45,4.79,.95,7.16,1.46,.46,.1,.92,.2,1.39,.31,2.35,.53,4.69,1.09,7,1.68,.28,.07,.56,.15,.84,.23,2.21,.58,4.4,1.18,6.57,1.82,.3,.09,.6,.17,.9,.26,2.26,.67,4.51,1.39,6.73,2.13,.43,.14,.86,.29,1.29,.44,2.24,.76,4.46,1.54,6.66,2.37,.19,.07,.37,.14,.55,.21,2.1,.8,4.18,1.62,6.24,2.48,.34,.14,.69,.28,1.03,.43,2.11,.89,4.2,1.81,6.28,2.77,.41,.19,.81,.38,1.22,.57,2.11,.99,4.21,2,6.27,3.05,.09,.05,.18,.1,.27,.14,2,1.02,3.98,2.09,5.95,3.18,.38,.21,.76,.42,1.13,.63,1.96,1.1,3.89,2.23,5.8,3.39,.16,.09,.32,.18,.47,.28-.77-.73-1.49-1.43-2.17-2.08-4.13-4.05-7.62-8.34-11-12.48-.72-.88-1.44-1.77-2.18-2.66-13.17-16.01-17.05-35.05-11.21-55.04,8.81-30.15,32.7-59.27,63.11-77.34-.55,.11-1.11,.23-1.66,.34-2.61,.54-5.21,1.09-7.8,1.65Z"/><polygon class="cls-3" points="472.24 187.45 472.24 187.45 472.25 187.44 472.25 187.45 472.25 187.45 472.24 187.45"/><path class="cls-1" d="M700.33,184c-33.51-20.6-73.63-31.02-119.59-31.02-42.39,0-79.31,9.27-98.64,16.2,.75-.01,1.5-.02,2.26-.02,19.87,0,49.51,4.97,77.88,28.66,25.32,21.15,44.89,53.19,58.32,95.41-2.52-17.44-4.08-37.98,2.11-59.41,8.86-30.66,35.41-50.47,67.64-50.47,3.36,0,6.71,.22,10.02,.66Z"/><path class="cls-14" d="M571.08,71.07c41.93-22.53,105.96-49.81,188.48-63.78-18.12,1.05-35.76,3.83-56.72,7.34-41.06,6.86-82.75,19.98-127.43,40.11-39.1,17.61-67.54,39.56-92.2,71.17l-2.82,3.6c-3.85,4.9-8.09,10.31-12.25,16.02,26.48-26.61,61.99-52.45,102.95-74.46Z"/></g><g><path class="cls-17" d="M1040.79,113.57v80.98h115.17v22.08h-115.17v103.41h144.05v23.29h-170.65V90.28h170.65v23.29h-144.05Z"/><path class="cls-27" d="M1043.32,116.07v80.98h115.17v22.08h-115.17v103.42h144.06v23.29h-170.65V92.78h170.65v23.29h-144.06Z"/></g><g><path class="cls-34" d="M1284.6,113.76h-73.76v-23.48h174.94v23.48h-73.76v231.64h-27.43V113.76Z"/><path class="cls-28" d="M1287.22,116.28h-73.75v-23.48h174.94v23.48h-73.75v231.64h-27.43V116.28Z"/></g><g><path class="cls-26" d="M1413.29,90.11h25.57l114.68,180.97,114.85-180.97h25.4v253.35h-26.45V135.88l-113.8,178.88-113.81-178.88v207.59h-26.44V90.11Z"/><path class="cls-35" d="M1415.8,92.61h25.58l114.67,180.98,114.85-180.98h25.41v253.37h-26.45V138.38l-113.8,178.88-113.81-178.88v207.6h-26.44V92.61Z"/></g><g><path class="cls-36" d="M1906.13,281.82h-134.68l-27.18,64.28h-28.81l113.61-262.15h19.27l113.79,262.15h-28.81l-27.19-64.28Zm-9.18-21.6l-58.16-137.38-58.16,137.38h116.32Z"/><path class="cls-38" d="M1908.73,284.41h-134.67l-27.19,64.29h-28.81l113.61-262.16h19.26l113.79,262.16h-28.81l-27.19-64.29Zm-9.18-21.59l-58.15-137.38-58.16,137.38h116.31Z"/></g><g><path class="cls-40" d="M1983.99,89.46h24.96l148.6,213.48V89.46h26.73V345.49h-24.98l-148.59-212.25v212.25h-26.73V89.46Z"/><path class="cls-39" d="M1986.52,91.99h24.96l148.6,213.48V91.99h26.73V348.03h-24.98l-148.59-212.26v212.26h-26.73V91.99Z"/></g><g><path class="cls-37" d="M2415.53,271.7c0,42.91-30.93,74.71-81.57,74.71h-129.5V89.25h125.16c42.14,0,69.99,29.13,69.99,64.11,0,22.78-13.74,42.74-33.64,50.86,29.12,9.89,49.56,36.21,49.56,67.48Zm-183.76-158.79v82.3h95.86c27.13,0,44.85-17.47,44.85-40.62s-17.54-41.68-44.67-41.68h-96.04Zm156.45,157.72c0-29.85-23.88-53.17-58.42-53.17h-98.03v105.27h99.11c35.27,0,57.34-21.36,57.34-52.1Z"/><path class="cls-32" d="M2418.13,274.24c0,42.92-30.92,74.72-81.57,74.72h-129.5V91.78h125.16c42.14,0,70,29.15,70,64.11,0,22.79-13.75,42.75-33.64,50.88,29.12,9.88,49.56,36.2,49.56,67.47Zm-183.76-158.79v82.3h95.86c27.13,0,44.86-17.48,44.86-40.61s-17.55-41.69-44.67-41.69h-96.04Zm156.45,157.73c0-29.84-23.88-53.16-58.42-53.16h-98.03v105.28h99.12c35.27,0,57.33-21.38,57.33-52.11Z"/></g><g><path class="cls-30" d="M2459.91,111.06v80.98h115.17v22.08h-115.17v103.41h144.05v23.29h-170.65V87.77h170.65v23.29h-144.05Z"/><path class="cls-33" d="M2462.44,113.56v80.98h115.17v22.08h-115.17v103.42h144.06v23.29h-170.65V90.27h170.65v23.29h-144.06Z"/></g><g><path class="cls-31" d="M2699.96,111.22h-73.76v-23.48h174.94v23.48h-73.76v231.64h-27.43V111.22Z"/><path class="cls-29" d="M2702.58,113.74h-73.75v-23.48h174.94v23.48h-73.75v231.64h-27.43V113.74Z"/></g></g></svg>